<svg width="92" height="59" viewBox="0 0 92 59" fill="none" xmlns="http://www.w3.org/2000/svg">
<path d="M8.92898 9.90909V39H2.77841V9.90909H8.92898ZM12.8814 14.9801V9.90909H36.7734V14.9801H27.8672V39H21.7876V14.9801H12.8814ZM40.7081 39V9.90909H60.3104V14.9801H46.8587V21.9119H59.3018V26.983H46.8587V33.929H60.3672V39H40.7081ZM75.5128 39H65.2003V9.90909H75.598C78.5241 9.90909 81.0431 10.4915 83.1548 11.6562C85.2666 12.8116 86.8906 14.4735 88.027 16.642C89.1728 18.8106 89.7457 21.4053 89.7457 24.4261C89.7457 27.4564 89.1728 30.0606 88.027 32.2386C86.8906 34.4167 85.2571 36.0881 83.1264 37.2528C81.0052 38.4176 78.4673 39 75.5128 39ZM71.3509 33.7301H75.2571C77.0753 33.7301 78.6046 33.4081 79.8452 32.7642C81.0952 32.1108 82.0327 31.1023 82.6577 29.7386C83.2921 28.3655 83.6094 26.5947 83.6094 24.4261C83.6094 22.2765 83.2921 20.5199 82.6577 19.1562C82.0327 17.7926 81.0999 16.7888 79.8594 16.1449C78.6188 15.5009 77.0895 15.179 75.2713 15.179H71.3509V33.7301Z" fill="black"/>
<path d="M25.6852 44.0923H24.5772C24.5346 43.8556 24.4553 43.6473 24.3393 43.4673C24.2233 43.2874 24.0813 43.1347 23.9132 43.0092C23.7451 42.8838 23.5569 42.7891 23.3485 42.7251C23.1426 42.6612 22.9236 42.6293 22.6916 42.6293C22.2725 42.6293 21.8973 42.7346 21.5659 42.9453C21.2368 43.156 20.9764 43.465 20.7846 43.8722C20.5952 44.2794 20.5005 44.7765 20.5005 45.3636C20.5005 45.9555 20.5952 46.455 20.7846 46.8622C20.9764 47.2694 21.238 47.5772 21.5694 47.7855C21.9009 47.9938 22.2737 48.098 22.688 48.098C22.9177 48.098 23.1355 48.0672 23.3414 48.0057C23.5498 47.9418 23.738 47.8482 23.9061 47.7251C24.0742 47.602 24.2162 47.4517 24.3322 47.2741C24.4506 47.0942 24.5323 46.8883 24.5772 46.6562L25.6852 46.6598C25.626 47.0173 25.5112 47.3464 25.3407 47.647C25.1726 47.9453 24.956 48.2034 24.6909 48.4212C24.4281 48.6366 24.1274 48.8035 23.7889 48.9219C23.4503 49.0402 23.081 49.0994 22.6809 49.0994C22.0512 49.0994 21.4901 48.9503 20.9977 48.652C20.5053 48.3513 20.117 47.9216 19.8329 47.3629C19.5512 46.8042 19.4103 46.1378 19.4103 45.3636C19.4103 44.5871 19.5524 43.9207 19.8365 43.3643C20.1206 42.8056 20.5088 42.3771 21.0012 42.0788C21.4937 41.7782 22.0536 41.6278 22.6809 41.6278C23.0668 41.6278 23.4267 41.6835 23.7605 41.7947C24.0967 41.9036 24.3985 42.0646 24.666 42.2777C24.9335 42.4884 25.1549 42.7464 25.3301 43.0518C25.5053 43.3549 25.6236 43.7017 25.6852 44.0923ZM33.3157 45.3636C33.3157 46.1402 33.1737 46.8078 32.8896 47.3665C32.6055 47.9228 32.216 48.3513 31.7212 48.652C31.2288 48.9503 30.6689 49.0994 30.0415 49.0994C29.4118 49.0994 28.8496 48.9503 28.3548 48.652C27.8623 48.3513 27.4741 47.9216 27.19 47.3629C26.9059 46.8042 26.7638 46.1378 26.7638 45.3636C26.7638 44.5871 26.9059 43.9207 27.19 43.3643C27.4741 42.8056 27.8623 42.3771 28.3548 42.0788C28.8496 41.7782 29.4118 41.6278 30.0415 41.6278C30.6689 41.6278 31.2288 41.7782 31.7212 42.0788C32.216 42.3771 32.6055 42.8056 32.8896 43.3643C33.1737 43.9207 33.3157 44.5871 33.3157 45.3636ZM32.229 45.3636C32.229 44.7718 32.1332 44.2734 31.9414 43.8686C31.752 43.4614 31.4916 43.1536 31.1602 42.9453C30.8311 42.7346 30.4582 42.6293 30.0415 42.6293C29.6225 42.6293 29.2485 42.7346 28.9194 42.9453C28.5903 43.1536 28.3299 43.4614 28.1381 43.8686C27.9487 44.2734 27.854 44.7718 27.854 45.3636C27.854 45.9555 27.9487 46.455 28.1381 46.8622C28.3299 47.267 28.5903 47.5748 28.9194 47.7855C29.2485 47.9938 29.6225 48.098 30.0415 48.098C30.4582 48.098 30.8311 47.9938 31.1602 47.7855C31.4916 47.5748 31.752 47.267 31.9414 46.8622C32.1332 46.455 32.229 45.9555 32.229 45.3636ZM37.0382 49H34.6838V41.7273H37.1127C37.8253 41.7273 38.4373 41.8729 38.9487 42.1641C39.46 42.4529 39.8519 42.8684 40.1241 43.4105C40.3987 43.9503 40.536 44.5978 40.536 45.353C40.536 46.1106 40.3975 46.7616 40.1206 47.3061C39.8459 47.8506 39.4482 48.2696 38.9274 48.5632C38.4065 48.8544 37.7768 49 37.0382 49ZM35.7811 48.0412H36.9778C37.5318 48.0412 37.9922 47.937 38.3592 47.7287C38.7261 47.518 39.0008 47.2138 39.1831 46.8161C39.3654 46.416 39.4565 45.9283 39.4565 45.353C39.4565 44.7824 39.3654 44.2983 39.1831 43.9006C39.0031 43.5028 38.7344 43.201 38.377 42.995C38.0195 42.7891 37.5756 42.6861 37.0453 42.6861H35.7811V48.0412ZM41.9006 49V41.7273H46.4602V42.6719H42.9979V44.8878H46.2223V45.8288H42.9979V48.0554H46.5028V49H41.9006ZM54.5391 43.6378C54.5012 43.3016 54.3449 43.0412 54.0703 42.8565C53.7957 42.6695 53.45 42.576 53.0334 42.576C52.7351 42.576 52.477 42.6233 52.2592 42.718C52.0414 42.8104 51.8722 42.9382 51.7514 43.1016C51.633 43.2625 51.5739 43.446 51.5739 43.652C51.5739 43.8248 51.6141 43.974 51.6946 44.0994C51.7775 44.2249 51.8852 44.3303 52.0178 44.4155C52.1527 44.4983 52.2971 44.5682 52.451 44.625C52.6049 44.6795 52.7528 44.7244 52.8949 44.7599L53.6051 44.9446C53.8371 45.0014 54.075 45.0784 54.3189 45.1754C54.5627 45.2725 54.7888 45.4003 54.9972 45.5589C55.2055 45.7176 55.3736 45.9141 55.5014 46.1484C55.6316 46.3828 55.6967 46.6634 55.6967 46.9901C55.6967 47.402 55.5902 47.7678 55.3771 48.0874C55.1664 48.407 54.8598 48.6591 54.4574 48.8438C54.0573 49.0284 53.5732 49.1207 53.005 49.1207C52.4605 49.1207 51.9893 49.0343 51.5916 48.8615C51.1939 48.6887 50.8826 48.4437 50.6577 48.1264C50.4328 47.8068 50.3085 47.428 50.2848 46.9901H51.3857C51.407 47.2528 51.4922 47.4718 51.6413 47.647C51.7929 47.8198 51.9858 47.9489 52.2202 48.0341C52.4569 48.117 52.7161 48.1584 52.9979 48.1584C53.308 48.1584 53.5838 48.1098 53.8253 48.0128C54.0691 47.9134 54.2609 47.776 54.4006 47.6009C54.5402 47.4233 54.6101 47.2161 54.6101 46.9794C54.6101 46.764 54.5485 46.5876 54.4254 46.4503C54.3047 46.313 54.1402 46.1993 53.9318 46.1094C53.7259 46.0194 53.4927 45.9401 53.2322 45.8714L52.3729 45.6371C51.7905 45.4785 51.3288 45.2453 50.9879 44.9375C50.6494 44.6297 50.4801 44.2225 50.4801 43.7159C50.4801 43.2969 50.5938 42.9311 50.821 42.6186C51.0483 42.3061 51.3561 42.0634 51.7443 41.8906C52.1326 41.7154 52.5705 41.6278 53.0582 41.6278C53.5507 41.6278 53.9851 41.7143 54.3615 41.8871C54.7403 42.0599 55.0386 42.2978 55.2564 42.6009C55.4742 42.9015 55.5878 43.2472 55.5973 43.6378H54.5391ZM63.0485 44.0923H61.9405C61.8979 43.8556 61.8186 43.6473 61.7026 43.4673C61.5866 43.2874 61.4445 43.1347 61.2765 43.0092C61.1084 42.8838 60.9202 42.7891 60.7118 42.7251C60.5059 42.6612 60.2869 42.6293 60.0549 42.6293C59.6358 42.6293 59.2606 42.7346 58.9292 42.9453C58.6001 43.156 58.3397 43.465 58.1479 43.8722C57.9585 44.2794 57.8638 44.7765 57.8638 45.3636C57.8638 45.9555 57.9585 46.455 58.1479 46.8622C58.3397 47.2694 58.6013 47.5772 58.9327 47.7855C59.2641 47.9938 59.637 48.098 60.0513 48.098C60.281 48.098 60.4988 48.0672 60.7047 48.0057C60.9131 47.9418 61.1013 47.8482 61.2694 47.7251C61.4374 47.602 61.5795 47.4517 61.6955 47.2741C61.8139 47.0942 61.8955 46.8883 61.9405 46.6562L63.0485 46.6598C62.9893 47.0173 62.8745 47.3464 62.704 47.647C62.5359 47.9453 62.3193 48.2034 62.0542 48.4212C61.7914 48.6366 61.4907 48.8035 61.1522 48.9219C60.8136 49.0402 60.4443 49.0994 60.0442 49.0994C59.4145 49.0994 58.8534 48.9503 58.361 48.652C57.8685 48.3513 57.4803 47.9216 57.1962 47.3629C56.9145 46.8042 56.7736 46.1378 56.7736 45.3636C56.7736 44.5871 56.9157 43.9207 57.1998 43.3643C57.4838 42.8056 57.8721 42.3771 58.3645 42.0788C58.8569 41.7782 59.4168 41.6278 60.0442 41.6278C60.4301 41.6278 60.79 41.6835 61.1238 41.7947C61.4599 41.9036 61.7618 42.0646 62.0293 42.2777C62.2968 42.4884 62.5182 42.7464 62.6934 43.0518C62.8685 43.3549 62.9869 43.7017 63.0485 44.0923ZM64.3615 49V41.7273H65.4588V44.8878H69.0845V41.7273H70.1854V49H69.0845V45.8288H65.4588V49H64.3615ZM78.1009 45.3636C78.1009 46.1402 77.9588 46.8078 77.6747 47.3665C77.3906 47.9228 77.0012 48.3513 76.5064 48.652C76.014 48.9503 75.4541 49.0994 74.8267 49.0994C74.197 49.0994 73.6347 48.9503 73.1399 48.652C72.6475 48.3513 72.2592 47.9216 71.9751 47.3629C71.6911 46.8042 71.549 46.1378 71.549 45.3636C71.549 44.5871 71.6911 43.9207 71.9751 43.3643C72.2592 42.8056 72.6475 42.3771 73.1399 42.0788C73.6347 41.7782 74.197 41.6278 74.8267 41.6278C75.4541 41.6278 76.014 41.7782 76.5064 42.0788C77.0012 42.3771 77.3906 42.8056 77.6747 43.3643C77.9588 43.9207 78.1009 44.5871 78.1009 45.3636ZM77.0142 45.3636C77.0142 44.7718 76.9183 44.2734 76.7266 43.8686C76.5372 43.4614 76.2768 43.1536 75.9453 42.9453C75.6162 42.7346 75.2434 42.6293 74.8267 42.6293C74.4077 42.6293 74.0336 42.7346 73.7045 42.9453C73.3755 43.1536 73.1151 43.4614 72.9233 43.8686C72.7339 44.2734 72.6392 44.7718 72.6392 45.3636C72.6392 45.9555 72.7339 46.455 72.9233 46.8622C73.1151 47.267 73.3755 47.5748 73.7045 47.7855C74.0336 47.9938 74.4077 48.098 74.8267 48.098C75.2434 48.098 75.6162 47.9938 75.9453 47.7855C76.2768 47.5748 76.5372 47.267 76.7266 46.8622C76.9183 46.455 77.0142 45.9555 77.0142 45.3636ZM85.7864 45.3636C85.7864 46.1402 85.6444 46.8078 85.3603 47.3665C85.0762 47.9228 84.6867 48.3513 84.1919 48.652C83.6995 48.9503 83.1396 49.0994 82.5123 49.0994C81.8825 49.0994 81.3203 48.9503 80.8255 48.652C80.333 48.3513 79.9448 47.9216 79.6607 47.3629C79.3766 46.8042 79.2346 46.1378 79.2346 45.3636C79.2346 44.5871 79.3766 43.9207 79.6607 43.3643C79.9448 42.8056 80.333 42.3771 80.8255 42.0788C81.3203 41.7782 81.8825 41.6278 82.5123 41.6278C83.1396 41.6278 83.6995 41.7782 84.1919 42.0788C84.6867 42.3771 85.0762 42.8056 85.3603 43.3643C85.6444 43.9207 85.7864 44.5871 85.7864 45.3636ZM84.6998 45.3636C84.6998 44.7718 84.6039 44.2734 84.4121 43.8686C84.2227 43.4614 83.9623 43.1536 83.6309 42.9453C83.3018 42.7346 82.9289 42.6293 82.5123 42.6293C82.0932 42.6293 81.7192 42.7346 81.3901 42.9453C81.061 43.1536 80.8006 43.4614 80.6088 43.8686C80.4194 44.2734 80.3248 44.7718 80.3248 45.3636C80.3248 45.9555 80.4194 46.455 80.6088 46.8622C80.8006 47.267 81.061 47.5748 81.3901 47.7855C81.7192 47.9938 82.0932 48.098 82.5123 48.098C82.9289 48.098 83.3018 47.9938 83.6309 47.7855C83.9623 47.5748 84.2227 47.267 84.4121 46.8622C84.6039 46.455 84.6998 45.9555 84.6998 45.3636ZM87.1545 49V41.7273H88.2518V48.0554H91.5472V49H87.1545Z" fill="black"/>
</svg>
